<svg width="24" height="21" viewBox="0 0 24 21" fill="none" xmlns="http://www.w3.org/2000/svg">
<path d="M22.7742 4.70351C22.5065 5.51677 22.2388 6.33003 21.9757 7.14329C21.2741 9.31968 20.5817 11.5007 19.8847 13.6771C19.7185 14.1946 19.5293 14.3379 18.9892 14.3379C15.6151 14.3379 12.2409 14.3379 8.8668 14.3332C8.67756 14.3332 8.59448 14.3887 8.53909 14.5689C8.37292 15.0633 8.18829 15.5531 7.99904 16.0891C8.10982 16.0891 8.19752 16.0891 8.28522 16.0891C11.8348 16.0891 15.3889 16.0891 18.9385 16.0891C19.0308 16.0891 19.1231 16.0891 19.2154 16.0984C19.5339 16.14 19.7555 16.3895 19.7462 16.6852C19.737 16.9856 19.5062 17.2305 19.1923 17.2536C18.9846 17.2674 18.7723 17.2582 18.5184 17.2582C18.9662 17.8266 19.1416 18.4273 18.9985 19.0973C18.8877 19.6241 18.6061 20.0538 18.163 20.3634C17.3645 20.9225 16.3352 20.904 15.5228 20.1832C14.7335 19.4854 14.6689 18.4596 15.3566 17.2767C13.8611 17.2767 12.3702 17.2767 10.8516 17.2767C11.3224 17.9097 11.4978 18.5844 11.2393 19.3376C11.087 19.7812 10.8101 20.137 10.4269 20.3957C9.60533 20.9502 8.53447 20.8532 7.80979 20.1508C7.19128 19.5547 6.81739 18.4134 7.68978 17.2582C7.52822 17.2582 7.39437 17.2582 7.2559 17.2582C6.73431 17.249 6.48044 16.8932 6.65122 16.3987C6.86817 15.7842 7.08973 15.1696 7.31129 14.5597C7.33436 14.495 7.35282 14.4303 7.38052 14.3379C7.26974 14.3379 7.17743 14.3379 7.08973 14.3379C6.69739 14.3286 6.42967 14.1068 6.36043 13.7279C6.1158 12.411 5.87577 11.0941 5.63575 9.77714C5.21571 7.48523 4.79106 5.19331 4.37564 2.89678C4.35256 2.7674 4.29717 2.70733 4.17716 2.66112C3.2817 2.31456 2.38624 1.95876 1.49077 1.60296C1.11689 1.45509 0.936875 1.1224 1.01996 0.780456C1.12612 0.350723 1.54616 0.133545 1.98466 0.299894C2.54778 0.51245 3.10629 0.738869 3.66481 0.960667C4.15408 1.15012 4.63874 1.34881 5.12802 1.53365C5.43728 1.64917 5.60806 1.86634 5.66806 2.18518C6.08349 4.44937 6.49891 6.71818 6.91433 8.98236C7.14512 10.2438 7.37591 11.5053 7.60208 12.7668C7.62516 12.9008 7.68055 12.947 7.82364 12.947C11.3732 12.9424 14.9273 12.9424 18.4769 12.947C18.5923 12.947 18.6661 12.9285 18.7077 12.7945C19.5062 10.29 20.3094 7.7902 21.1079 5.28573C21.1125 5.27187 21.1079 5.25801 21.1079 5.21642C20.9509 5.20718 20.794 5.19331 20.6371 5.18407C18.1584 5.07779 15.6797 4.97614 13.201 4.86986C11.664 4.80517 10.1269 4.73586 8.58986 4.66654C8.15136 4.64806 7.86056 4.34771 7.87441 3.93646C7.88826 3.53907 8.20213 3.2572 8.6314 3.27106C9.32377 3.29417 10.0208 3.33113 10.7131 3.35886C12.1948 3.42355 13.6718 3.49286 15.1535 3.55293C17.4614 3.65459 19.7693 3.75163 22.0772 3.85328C22.4465 3.86715 22.6496 4.08432 22.7742 4.40778C22.7742 4.50482 22.7742 4.60185 22.7742 4.70351ZM16.9629 17.7249C16.4506 17.7203 16.0259 18.1362 16.0213 18.6444C16.0167 19.1527 16.4459 19.5778 16.9537 19.5778C17.4568 19.5778 17.8768 19.1666 17.8814 18.6629C17.8907 18.1546 17.4753 17.7295 16.9629 17.7249ZM10.1915 18.6491C10.1915 18.1315 9.77611 17.7249 9.25453 17.7249C8.74679 17.7295 8.34061 18.1362 8.33599 18.6444C8.33138 19.1574 8.74679 19.5778 9.26376 19.5825C9.77612 19.5825 10.1915 19.1666 10.1915 18.6491Z" fill="black" stroke="black" stroke-width="0.5" stroke-miterlimit="10"/>
</svg>
