<svg width="25" height="21" viewBox="0 0 25 21" fill="none" xmlns="http://www.w3.org/2000/svg">
<path d="M1.20558 6.64604C1.28049 6.19606 1.32456 5.74168 1.43914 5.30052C2.04286 2.98888 3.39574 1.29926 5.70488 0.571362C8.17266 -0.209479 10.3232 0.42137 12.1035 2.30068C12.315 2.52126 12.5001 2.76389 12.7072 3.01094C12.9099 2.77272 13.095 2.53449 13.3021 2.30951C14.2848 1.25074 15.457 0.514012 16.9068 0.328728C19.1455 0.0419782 21.0624 0.725766 22.5343 2.45067C24.0061 4.17558 24.438 6.21371 24.0987 8.4283C23.8827 9.83117 23.2438 11.0532 22.4065 12.1781C21.3092 13.656 19.9695 14.9 18.5902 16.1044C16.9641 17.5205 15.3248 18.9277 13.6899 20.335C13.0598 20.8776 12.3855 20.8997 11.7818 20.3791C9.64892 18.5263 7.51165 16.6823 5.40522 14.7985C4.33438 13.8457 3.37811 12.7781 2.5893 11.5693C1.84897 10.4267 1.351 9.1959 1.23643 7.82833C1.23202 7.77539 1.21439 7.72686 1.20117 7.67834C1.20558 7.33424 1.20558 6.99014 1.20558 6.64604ZM12.7028 19.3954C12.7601 19.3512 12.8086 19.316 12.8526 19.2763C14.6726 17.7013 16.5014 16.1397 18.3038 14.5515C19.5641 13.4398 20.7628 12.2619 21.6926 10.8502C22.5828 9.50471 23.019 8.04008 22.8163 6.41664C22.596 4.66526 21.8468 3.21387 20.2956 2.30068C18.8502 1.44926 17.3211 1.34338 15.7875 2.08452C14.8797 2.52126 14.2099 3.23151 13.6458 4.05647C13.5665 4.17558 13.4916 4.29911 13.4079 4.41381C13.0377 4.92113 12.3767 4.91672 12.0021 4.41822C11.676 3.98148 11.3764 3.51826 11.0018 3.12123C9.79875 1.84629 8.30927 1.3522 6.59504 1.72277C4.7442 2.12422 3.52794 3.29769 2.9154 5.0623C2.20151 7.11366 2.54083 9.04591 3.72184 10.8458C4.45336 11.9619 5.35234 12.9413 6.33945 13.828C7.96995 15.2971 9.6357 16.7308 11.2838 18.1734C11.7554 18.5836 12.2269 18.9851 12.7028 19.3954Z" fill="black" stroke="black" stroke-width="0.5" stroke-miterlimit="10"/>
</svg>
