<svg width="19" height="21" viewBox="0 0 19 21" fill="none" xmlns="http://www.w3.org/2000/svg">
<path d="M13.485 10.1212C14.7052 10.8159 15.6384 11.7692 16.3466 12.9524C17.1027 14.2219 17.5573 15.6016 17.7631 17.0531C17.897 18.0016 17.9401 18.9645 17.9975 19.9226C18.031 20.4639 17.72 20.7562 17.1745 20.7562C11.8723 20.7562 6.57019 20.7562 1.26806 20.7562C0.712958 20.7562 0.421054 20.4687 0.425839 19.9082C0.440195 17.9777 0.684247 16.0902 1.4164 14.289C2.12463 12.55 3.2109 11.1272 4.85705 10.1691C4.88097 10.1548 4.9049 10.1308 4.92883 10.1116C2.4931 7.54394 3.03862 3.62051 5.44086 1.61808C7.72345 -0.293335 11.0636 -0.202315 13.2314 1.83844C15.447 3.92231 15.8106 7.58226 13.485 10.1212ZM16.5189 19.2855C16.428 17.3549 16.1265 15.4914 15.1551 13.8003C14.5043 12.665 13.6046 11.7931 12.4131 11.223C12.2695 11.1512 12.1642 11.156 12.0207 11.2326C10.14 12.2291 8.25463 12.2147 6.37878 11.2183C6.25915 11.156 6.16344 11.1416 6.04381 11.2039C5.11067 11.6494 4.33066 12.2817 3.71814 13.1153C2.82807 14.3225 2.35911 15.6974 2.12463 17.1633C2.01457 17.8579 1.95714 18.5669 1.87101 19.2855C6.77596 19.2855 11.6331 19.2855 16.5189 19.2855ZM13.6046 6.10678C13.6046 3.68279 11.6378 1.70431 9.21648 1.70431C6.7951 1.70431 4.81876 3.67321 4.81876 6.0972C4.81876 8.5212 6.78553 10.4997 9.2069 10.4997C11.6283 10.5045 13.6046 8.53078 13.6046 6.10678Z" fill="black" stroke="black" stroke-width="0.5" stroke-miterlimit="10"/>
</svg>
